<?xml version="1.0" encoding="utf-8"?>
<!-- Generator: Adobe Illustrator 23.1.1, SVG Export Plug-In . SVG Version: 6.00 Build 0)  -->
<svg version="1.1" id="Layer_1" xmlns="http://www.w3.org/2000/svg" xmlns:xlink="http://www.w3.org/1999/xlink" x="0px" y="0px"
	 viewBox="0 0 117.8 116.9" style="enable-background:new 0 0 117.8 116.9;" xml:space="preserve">
<style type="text/css">
	.st0{fill:#EF5255;}
	.st1{fill:#2E4D79;}
	.st2{enable-background:new    ;}
	.st3{fill:#FFFFFF;}
	.st4{fill:#FCB913;}
</style>
<path class="st0" d="M57.6,116.9C25.8,116.9,0,91.1,0,59.3l0,0C0,26.6,26.5,0,59.3,0l0,0c33.3,0,58.5,25.7,58.5,58.4h-15.1
	c0-0.2,0-0.4,0-0.5l0,0c0-23.7-19-42.8-42.7-42.8h-1.4c-24,0-43.5,19.5-43.5,43.5v0.6c0,23.5,19.1,42.6,42.6,42.6l0,0
	c0.5,0,1,0,1.4,0v15h-1.5V116.9z"/>
<circle class="st1" cx="59" cy="58.6" r="36"/>
<g class="st2">
	<path class="st3" d="M54.5,50.7l8.4-11.5v17.5h-3.4v-7.1l-4.9,6.8l-5-6.8v7.1h-3.4V39.1L54.5,50.7z"/>
	<path class="st3" d="M67,39.5h3.4v17.1H67V39.5z"/>
</g>
<g class="st2">
	<path class="st3" d="M50.4,78.2l-7.7-17.5h3.6l4.1,9.4l4.1-9.4h3.7L50.4,78.2z"/>
	<path class="st3" d="M71,71V60.6h3.5V71c0,1.9-0.7,3.5-2,4.9c-1.4,1.3-3,2-4.9,2c-1.9,0-3.6-0.7-4.9-2c-1.4-1.4-2-3-2-4.9V60.6h3.5
		V71c0,1.9,1.6,3.4,3.5,3.4C69.4,74.5,71,72.9,71,71z"/>
</g>
<g>
	<circle class="st4" cx="98.7" cy="90.7" r="1.6"/>
</g>
<g>
	<circle class="st4" cx="104.2" cy="82.5" r="1.6"/>
</g>
<g>
	<circle class="st4" cx="108" cy="73.3" r="1.6"/>
</g>
<g>
	<circle class="st4" cx="91.8" cy="97.7" r="1.6"/>
</g>
<g>
	<circle class="st4" cx="82.6" cy="103.8" r="1.6"/>
</g>
<g>
	<circle class="st4" cx="72.4" cy="107.8" r="1.6"/>
</g>
</svg>
