<?xml version="1.0" encoding="utf-8"?>
<!-- Generator: Adobe Illustrator 23.1.1, SVG Export Plug-In . SVG Version: 6.00 Build 0)  -->
<svg version="1.1" id="Layer_1" xmlns="http://www.w3.org/2000/svg" xmlns:xlink="http://www.w3.org/1999/xlink" x="0px" y="0px"
	 viewBox="0 0 250 150" style="enable-background:new 0 0 250 150;" xml:space="preserve">
<style type="text/css">
	.st0{fill:#EF5255;}
	.st1{fill:#2E4D79;}
	.st2{fill:#FFFFFF;}
	.st3{font-family:'LemonMilk';}
	.st4{font-size:21.7682px;}
	.st5{letter-spacing:2;}
	.st6{letter-spacing:1;}
	.st7{fill:#FCB913;}
</style>
<path class="st0" d="M126,131.5c-31.8,0-57.6-25.8-57.6-57.6v0c0-32.7,26.5-59.3,59.3-59.3h0c33.3,0,58.5,25.7,58.5,58.4h-15.1
	c0-0.2,0-0.4,0-0.5v0c0-23.7-19-42.8-42.7-42.8H127c-24,0-43.5,19.5-43.5,43.5v0.6c0,23.5,19.1,42.6,42.6,42.6h0c0.5,0,1,0,1.4,0v15
	H126z"/>
<circle class="st1" cx="127.4" cy="73.2" r="36"/>
<text transform="matrix(1 0 0 1 113.4043 71.2886)"><tspan x="0" y="0" class="st2 st3 st4 st5">mi</tspan><tspan x="-2.8" y="21.1" class="st2 st3 st4 st6">vu</tspan></text>
<g>
	<circle class="st7" cx="167.1" cy="105.3" r="1.6"/>
</g>
<g>
	<circle class="st7" cx="172.6" cy="97.1" r="1.6"/>
</g>
<g>
	<circle class="st7" cx="176.4" cy="87.9" r="1.6"/>
</g>
<g>
	<circle class="st7" cx="160.2" cy="112.3" r="1.6"/>
</g>
<g>
	<circle class="st7" cx="151" cy="118.4" r="1.6"/>
</g>
<g>
	<circle class="st7" cx="140.8" cy="122.4" r="1.6"/>
</g>
</svg>
